<svg width="35" height="14" viewBox="0 0 35 14" fill="none" xmlns="http://www.w3.org/2000/svg">
<path d="M32.0396 4.744C31.8476 3.48533 31.1916 2.856 30.0716 2.856C29.261 2.856 28.653 3.18133 28.2476 3.832C27.8423 4.472 27.6396 5.48 27.6396 6.856L27.6556 7.4C27.8156 6.824 28.1623 6.36533 28.6956 6.024C29.229 5.68267 29.8583 5.512 30.5836 5.512C31.693 5.512 32.5623 5.84267 33.1916 6.504C33.821 7.16533 34.1356 8.09867 34.1356 9.304C34.1356 10.0293 33.9916 10.68 33.7036 11.256C33.4156 11.8213 32.9836 12.2747 32.4076 12.616C31.8316 12.9467 31.1223 13.112 30.2796 13.112C28.6476 13.112 27.5276 12.6053 26.9196 11.592C26.3116 10.5787 26.0076 9.18667 26.0076 7.416C26.0076 5.38933 26.333 3.87467 26.9836 2.872C27.6343 1.86933 28.701 1.368 30.1836 1.368C31.293 1.368 32.141 1.68267 32.7276 2.312C33.325 2.94133 33.6716 3.752 33.7676 4.744H32.0396ZM27.8156 9.096C27.8156 9.78933 28.0183 10.3707 28.4236 10.84C28.829 11.2987 29.4263 11.528 30.2156 11.528C30.8876 11.528 31.421 11.3307 31.8156 10.936C32.221 10.5413 32.4236 9.992 32.4236 9.288C32.4236 8.53067 32.221 7.94933 31.8156 7.544C31.4103 7.13867 30.861 6.936 30.1676 6.936C29.5383 6.936 28.989 7.12267 28.5196 7.496C28.0503 7.86933 27.8156 8.40267 27.8156 9.096Z" fill="#1D1613"/>
<path d="M5.21413 4.072C6.06746 4.072 6.83546 4.25333 7.51813 4.616C8.20079 4.97867 8.73413 5.50133 9.11812 6.184C9.50213 6.86667 9.69413 7.66667 9.69413 8.584C9.69413 9.512 9.50213 10.3173 9.11812 11C8.73413 11.6827 8.20079 12.2053 7.51813 12.568C6.83546 12.9307 6.06746 13.112 5.21413 13.112C4.36079 13.112 3.59279 12.9307 2.91013 12.568C2.23813 12.2053 1.70479 11.6827 1.31013 11C0.926125 10.3067 0.734125 9.50133 0.734125 8.584C0.734125 7.66667 0.926125 6.86667 1.31013 6.184C1.70479 5.50133 2.23813 4.97867 2.91013 4.616C3.59279 4.25333 4.36079 4.072 5.21413 4.072ZM5.21413 5.656C4.74479 5.656 4.31279 5.76267 3.91813 5.976C3.52346 6.18933 3.20346 6.52 2.95813 6.968C2.72346 7.40533 2.60613 7.944 2.60613 8.584C2.60613 9.23467 2.72346 9.77867 2.95813 10.216C3.20346 10.6533 3.52346 10.9787 3.91813 11.192C4.31279 11.4053 4.74479 11.512 5.21413 11.512C5.68346 11.512 6.11546 11.4053 6.51013 11.192C6.90479 10.9787 7.21946 10.6533 7.45413 10.216C7.69946 9.77867 7.82213 9.23467 7.82213 8.584C7.82213 7.944 7.69946 7.40533 7.45413 6.968C7.21946 6.52 6.90479 6.18933 6.51013 5.976C6.11546 5.76267 5.68346 5.656 5.21413 5.656ZM15.5598 2.36C14.8451 2.328 14.3438 2.44533 14.0558 2.712C13.7678 2.968 13.6238 3.41067 13.6238 4.04V4.184H15.5598V5.752H13.6238V13H11.7838V5.752H10.5838V4.184H11.7838V3.896C11.7838 2.81867 12.0984 2.01333 12.7278 1.48C13.3571 0.936 14.3011 0.695999 15.5598 0.759999V2.36Z" fill="#1D1613"/>
</svg>
